<!-- icon666.com - MILLIONS vector ICONS FREE --><svg enable-background="new 0 0 512 512" viewBox="0 0 512 512" xmlns="http://www.w3.org/2000/svg"><g id="_x35_7_x2C__Ok_x2C__Report_x2C__Good_x2C__Reload_x2C__Refresh"><g><path d="m42.851 335.52c5.255-1.699 8.144-7.337 6.445-12.591-25.216-78.084-4.881-162.59 53.071-220.543 71.52-71.517 185.234-83.998 270.385-29.679 3.955 2.523 9.135 1.958 12.451-1.359l12.785-12.785 17.337 68.325-68.681-18.017 14.757-16.115c4.313-4.709 3.168-12.217-2.375-15.414-80.6-46.53-182.923-33.006-248.814 32.886-3.905 3.905-3.905 10.237 0 14.142 3.904 3.907 10.234 3.907 14.145 0 56.523-56.523 142.715-70.379 213.592-35.615l-17.252 18.829c-5.075 5.543-2.436 14.518 4.841 16.426l101.113 26.526c3.422.899 7.067-.083 9.583-2.573 2.51-2.492 3.516-6.128 2.649-9.56l-25.834-101.809c-.887-3.486-3.57-6.228-7.042-7.184-3.467-.952-7.182.03-9.722 2.572l-19.648 19.646c-43.414-25.62-94.629-36.826-145.121-31.616-100.72 10.392-183.924 83.98-206.645 182.325-9.697 41.97-7.834 85.793 5.389 126.738 1.698 5.259 7.337 8.138 12.591 6.445z"></path><path d="m469.174 176.485c-5.254 1.698-8.138 7.334-6.444 12.591 25.216 78.086 4.871 162.6-53.102 220.572-71.5 71.5-185.214 83.961-270.38 29.619-3.955-2.521-9.134-1.958-12.451 1.359l-12.785 12.785-17.317-68.298 67.839 17.78-15.146 15.141c-4.617 4.622-3.636 12.367 1.997 15.688 80.943 47.693 183.914 34.569 250.403-31.919 3.905-3.905 3.905-10.235 0-14.145-3.904-3.9-10.234-3.9-14.145 0-56.941 56.946-143.517 70.548-214.648 35.057l18.005-18.002c2.53-2.535 3.516-6.23 2.58-9.688-.937-3.456-3.651-6.15-7.117-7.057l-101.089-26.495c-3.421-.896-7.067.079-9.577 2.569-2.516 2.495-3.521 6.126-2.65 9.558l25.804 101.781c.881 3.486 3.571 6.23 7.037 7.187 3.472.951 7.182-.03 9.727-2.575l19.648-19.643c36.477 21.53 78.447 32.891 120.881 32.891 63.267 0 123.575-25.494 167.528-69.452 63.824-63.825 85.086-156.949 57.992-240.858-1.698-5.258-7.33-8.141-12.59-6.446z"></path><path d="m383.007 155.834c-13.094-13.089-34.39-13.089-47.479.002l-17.686 17.686c-45.955-38.098-114.899-37.341-160.072 6.656-49.123 47.847-47.833 125.369-.005 171.871 46.144 44.864 121.569 46.244 168.983-1.817 31.969-32.403 42.124-78.627 29.25-119.912l27.004-27.007c13.123-13.119 13.123-34.356.005-47.479zm-41.716 115.094c-2.451 51.005-42.703 91.795-93.628 94.888-60.478 3.676-108.066-45.616-106.199-103.146 1.714-52.843 46.294-96.668 99.948-96.668 22.836 0 44.561 7.645 62.216 21.735l-55.477 55.479-9.597-9.6c-13.094-13.089-34.391-13.089-47.479 0-13.089 13.091-13.089 34.388 0 47.477l50.004 50.004c3.905 3.904 10.24 3.904 14.145 0l84.33-84.334c1.543 7.893 2.13 15.971 1.737 24.165zm27.571-81.758-120.711 120.715-42.937-42.932c-5.289-5.294-5.289-13.9 0-19.195 5.294-5.29 13.901-5.294 19.195 0l16.669 16.669c3.905 3.9 10.24 3.905 14.145 0l94.445-94.449c5.294-5.294 13.905-5.292 19.194 0 5.305 5.302 5.305 13.886 0 19.192z"></path><path d="m456.001 456.002h20.001v20.001h-20.001z"></path><path d="m456.001 426.004h20.001v19.997h-20.001z"></path><path d="m425.998 456.002h20.002v20.001h-20.002z"></path><path d="m396.001 456.002h20.002v20.001h-20.002z"></path><path d="m35.998 36.001h20.001v20.002h-20.001z"></path><path d="m35.998 66.001h20.001v20.002h-20.001z"></path><path d="m66 36.001h19.997v20.002h-19.997z"></path><path d="m95.998 36.001h20.001v20.002h-20.001z"></path><path d="m40.998 426.004c-13.786 0-24.997 11.211-24.997 24.997s11.211 25.002 24.997 25.002 25.002-11.216 25.002-25.002-11.216-24.997-25.002-24.997zm0 29.998c-2.754 0-5-2.241-5-5.001 0-2.754 2.246-5 5-5 2.759 0 5 2.246 5 5 .001 2.76-2.241 5.001-5 5.001z"></path><path d="m466.002 96.003c16.54 0 29.997-13.459 29.997-30.002 0-16.54-13.457-30-29.997-30-16.546 0-30.003 13.46-30.003 30 0 16.543 13.457 30.002 30.003 30.002zm0-40c5.513 0 10 4.485 10 9.998 0 5.516-4.487 10.001-10 10.001-5.514 0-10.001-4.485-10.001-10.001 0-5.513 4.487-9.998 10.001-9.998z"></path></g></g></svg>