<!-- icon666.com - MILLIONS vector ICONS FREE --><svg version="1.1" id="Capa_1" xmlns="http://www.w3.org/2000/svg" xmlns:xlink="http://www.w3.org/1999/xlink" x="0px" y="0px" viewBox="0 0 512.001 512.001" style="enable-background:new 0 0 512.001 512.001;" xml:space="preserve"><g><g><g><path d="M503.468,34.134H203.942C199.978,14.682,182.739,0,162.134,0c-23.526,0-42.667,19.14-42.667,42.667v307.2 c0,23.526,19.14,42.667,42.667,42.667h341.333c4.719,0,8.533-3.823,8.533-8.533V42.667 C512.001,37.957,508.186,34.134,503.468,34.134z M136.534,42.667c0-14.114,11.486-25.6,25.6-25.6s25.6,11.486,25.6,25.6v273.084 c-7.134-5.359-16-8.55-25.6-8.55c-9.6,0-18.466,3.191-25.6,8.55V42.667z M494.934,375.467h-332.8 c-14.114,0-25.6-11.486-25.6-25.6s11.486-25.6,25.6-25.6s25.6,11.486,25.6,25.6c0,4.71,3.814,8.533,8.533,8.533 s8.533-3.823,8.533-8.533V51.2h290.133V375.467z"></path><path d="M238.933,349.867L238.933,349.867h102.401H460.8c4.719,0,8.533-3.823,8.533-8.533V153.617 c0-0.006,0.001-0.011,0.001-0.017V85.334c0-4.71-3.814-8.533-8.533-8.533H460.8h-68.266h-51.2h-102.4h-0.001 c-4.719,0-8.533,3.823-8.533,8.533v256C230.4,346.044,234.214,349.867,238.933,349.867z M332.801,93.867v42.667 c0,4.71,3.814,8.533,8.533,8.533c4.719,0,8.533-3.823,8.533-8.533V93.867h34.133V153.6c0,4.71,3.814,8.533,8.533,8.533h17.067 c4.719,0,8.533-3.823,8.533-8.533c0-4.71-3.814-8.533-8.533-8.533h-8.533v-51.2h51.199v51.2h-8.532 c-4.719,0-8.533,3.823-8.533,8.533c0,4.71,3.814,8.533,8.533,8.533h8.532V332.8H349.868v-25.6c0-4.71-3.814-8.533-8.533-8.533 c-4.719,0-8.533,3.823-8.533,8.533v25.6h-85.333V196.267h85.333v76.8c0,4.71,3.814,8.533,8.533,8.533 c4.719,0,8.533-3.823,8.533-8.533v-85.333v-17.067c0-4.71-3.814-8.533-8.533-8.533c-4.719,0-8.533,3.823-8.533,8.533v8.533 h-85.333V93.867H332.801z"></path><path d="M349.867,409.6H102.4V145.067c0-4.71-3.814-8.533-8.533-8.533H8.533c-4.719,0-8.533,3.823-8.533,8.533v273.067v85.333 C0,508.177,3.814,512,8.533,512h341.333c4.719,0,8.533-3.823,8.533-8.533v-85.333C358.4,413.423,354.586,409.6,349.867,409.6z M85.333,153.6v256H17.067v-17.067h8.534c4.719,0,8.533-3.823,8.533-8.533s-3.814-8.533-8.533-8.533h-8.534V358.4h25.601 c4.719,0,8.533-3.823,8.533-8.533s-3.814-8.533-8.533-8.533H17.067v-17.067h8.534c4.719,0,8.533-3.823,8.533-8.533 s-3.814-8.533-8.533-8.533h-8.534v-17.067h25.601c4.719,0,8.533-3.823,8.533-8.533s-3.814-8.533-8.533-8.533H17.067V256h8.534 c4.719,0,8.533-3.823,8.533-8.533s-3.814-8.533-8.533-8.533h-8.534v-17.067h25.601c4.719,0,8.533-3.823,8.533-8.533 c0-4.71-3.814-8.533-8.533-8.533H17.067v-17.067h8.534c4.719,0,8.533-3.823,8.533-8.533s-3.814-8.533-8.533-8.533h-8.534V153.6 H85.333z M341.333,494.934H17.067v-68.267h76.8h247.467V494.934z"></path><path d="M307.201,469.334c4.719,0,8.533-3.823,8.533-8.533s-3.814-8.533-8.533-8.533s-8.533,3.823-8.533,8.533 S302.482,469.334,307.201,469.334z"></path></g></g></g></svg>