<!-- icon666.com - MILLIONS vector ICONS FREE --><svg version="1.1" id="Capa_1" xmlns="http://www.w3.org/2000/svg" xmlns:xlink="http://www.w3.org/1999/xlink" x="0px" y="0px" viewBox="0 0 488.64 488.64" style="enable-background:new 0 0 488.64 488.64;" xml:space="preserve"><g><g><path d="M484.64,442.264h-29V79.624c0.004-1.562-0.902-2.984-2.32-3.64l-133.64-61.48c-1.287-0.63-2.813-0.523-4,0.28 c-1.145,0.734-1.838,2-1.84,3.36v249.48l-17.52-10.08v-95.08c0-2.209-1.791-4-4-4h-65.68v-72.68 c-0.002-1.36-0.695-2.626-1.84-3.36c-1.194-0.79-2.72-0.882-4-0.24l-185.52,87.8c-1.402,0.668-2.291,2.087-2.28,3.64v268.64H4 c-2.209,0-4,1.791-4,4c0,2.209,1.791,4,4,4h480.64c2.209,0,4-1.791,4-4C488.64,444.054,486.849,442.264,484.64,442.264z M154.64,162.464v280H41v-266.12l177.64-84v66.12h-60C156.431,158.464,154.64,160.254,154.64,162.464z M288.32,442.264H162.68 v-275.8h125.64V442.264z M314,442.264h-17.68v-175.52l17.68,10.08V442.264z M380.84,442.344h-28.52v-65.4H381L380.84,442.344z M417.48,442.344h-28.64v-65.32h28.64V442.344z M447.64,442.264h-22.16v-69.32c0-2.209-1.791-4-4-4h-73.16c-2.209,0-4,1.791-4,4 v69.32H322V24.344l125.64,57.92V442.264z"></path></g></g><g><g><path d="M455.32,466.544h-50.64c-2.209,0-4,1.791-4,4c0,2.209,1.791,4,4,4h50.64c2.209,0,4-1.791,4-4 C459.32,468.334,457.529,466.544,455.32,466.544z"></path></g></g><g><g><path d="M75.48,466.544H37.52c-2.209,0-4,1.791-4,4c0,2.209,1.791,4,4,4h37.96c2.209,0,4-1.791,4-4 C79.48,468.334,77.689,466.544,75.48,466.544z"></path></g></g><g><g><path d="M112.32,466.544H99.68c-2.209,0-4,1.791-4,4c0,2.209,1.791,4,4,4h12.64c2.209,0,4-1.791,4-4 C116.32,468.334,114.529,466.544,112.32,466.544z"></path></g></g><g><g><path d="M376.68,466.544h-90.04c-2.209,0-4,1.791-4,4c0,2.209,1.791,4,4,4h90.04c2.209,0,4-1.791,4-4 C380.68,468.334,378.889,466.544,376.68,466.544z"></path></g></g><g><g><path d="M372.803,145.58c-0.054,0-0.109,0.001-0.163,0.003h-24.32c-2.209,0-4,1.791-4,4v24.44c0,2.209,1.791,4,4,4h24.48 c2.209,0,4-1.791,4-4v-24.44C376.802,147.374,375.012,145.582,372.803,145.58z M368.64,170.024h-16.32v-16.44h16.48 L368.64,170.024z"></path></g></g><g><g><path d="M421.48,145.584H397c-2.209,0-4,1.791-4,4v24.44c0,2.209,1.791,4,4,4h24.48c2.209,0,4-1.791,4-4v-24.44 C425.48,147.374,423.689,145.584,421.48,145.584z M417.48,170.024H401v-16.44h16.48V170.024z"></path></g></g><g><g><path d="M372.803,198.26c-0.054,0-0.109,0.001-0.163,0.003h-24.32c-2.209,0-4,1.791-4,4v24.44c0,2.209,1.791,4,4,4h24.48 c2.209,0,4-1.791,4-4v-24.44C376.802,200.054,375.012,198.262,372.803,198.26z M368.64,222.704h-16.32v-16.44h16.48 L368.64,222.704z"></path></g></g><g><g><path d="M421.48,198.264H397c-2.209,0-4,1.791-4,4v24.44c0,2.209,1.791,4,4,4h24.48c2.209,0,4-1.791,4-4v-24.44 C425.48,200.054,423.689,198.264,421.48,198.264z M417.48,222.704H401v-16.44h16.48V222.704z"></path></g></g><g><g><path d="M372.803,250.94c-0.054,0-0.109,0.001-0.163,0.003h-24.32c-2.209,0-4,1.791-4,4v24.44c0,2.209,1.791,4,4,4h24.48 c2.209,0,4-1.791,4-4v-24.44C376.802,252.734,375.012,250.942,372.803,250.94z M368.64,275.384h-16.32v-16.44h16.48 L368.64,275.384z"></path></g></g><g><g><path d="M421.48,250.944H397c-2.209,0-4,1.791-4,4v24.44c0,2.209,1.791,4,4,4h24.48c2.209,0,4-1.791,4-4v-24.44 C425.48,252.734,423.689,250.944,421.48,250.944z M417.48,275.384H401v-16.44h16.48V275.384z"></path></g></g><g><g><path d="M372.803,303.58c-0.054,0-0.109,0.001-0.163,0.003h-24.32c-2.209,0-4,1.791-4,4v24.48c0,2.209,1.791,4,4,4h24.48 c2.209,0,4-1.791,4-4v-24.48C376.802,305.374,375.012,303.582,372.803,303.58z M368.64,328.064h-16.32v-16.48h16.48 L368.64,328.064z"></path></g></g><g><g><path d="M421.48,303.584H397c-2.209,0-4,1.791-4,4v24.48c0,2.209,1.791,4,4,4h24.48c2.209,0,4-1.791,4-4v-24.48 C425.48,305.374,423.689,303.584,421.48,303.584z M417.48,328.064H401v-16.48h16.48V328.064z"></path></g></g><g><g><path d="M92.08,278.984h-23.2c-2.209,0-4,1.791-4,4v46.6c0,2.209,1.791,4,4,4h23.2c2.209,0,4-1.791,4-4v-46.6 C96.08,280.774,94.289,278.984,92.08,278.984z M88.08,325.584h-15.2v-38.6h15.2V325.584z"></path></g></g><g><g><path d="M138.4,278.984h-23.2c-2.209,0-4,1.791-4,4v46.6c0,2.209,1.791,4,4,4h23.2c2.209,0,4-1.791,4-4v-46.6 C142.4,280.774,140.609,278.984,138.4,278.984z M134.4,325.584h-15.2v-38.6h15.2V325.584z"></path></g></g><g><g><path d="M92.08,350.064h-23.2c-2.209,0-4,1.791-4,4v46.6c0,2.209,1.791,4,4,4h23.2c2.209,0,4-1.791,4-4v-46.6 C96.08,351.854,94.289,350.064,92.08,350.064z M88.08,396.664h-15.2v-38.6h15.2V396.664z"></path></g></g><g><g><path d="M138.4,350.064h-23.2c-2.209,0-4,1.791-4,4v46.6c0,2.209,1.791,4,4,4h23.2c2.209,0,4-1.791,4-4v-46.6 C142.4,351.854,140.609,350.064,138.4,350.064z M134.4,396.664h-15.2v-38.6h15.2V396.664z"></path></g></g><g><g><path d="M92.08,207.944h-23.2c-2.209,0-4,1.791-4,4v46.6c0,2.209,1.791,4,4,4h23.2c2.209,0,4-1.791,4-4v-46.6 C96.08,209.734,94.289,207.944,92.08,207.944z M88.08,254.544h-15.2v-38.6h15.2V254.544z"></path></g></g><g><g><path d="M138.4,207.944h-23.2c-2.209,0-4,1.791-4,4v46.6c0,2.209,1.791,4,4,4h23.2c2.209,0,4-1.791,4-4v-46.6 C142.4,209.734,140.609,207.944,138.4,207.944z M134.4,254.544h-15.2v-38.6h15.2V254.544z"></path></g></g><g><g><path d="M260.32,200.344h-69.64c-2.209,0-4,1.791-4,4c0,2.209,1.791,4,4,4h69.64c2.209,0,4-1.791,4-4 C264.32,202.134,262.529,200.344,260.32,200.344z"></path></g></g><g><g><path d="M260.32,240.344h-69.64c-2.209,0-4,1.791-4,4c0,2.209,1.791,4,4,4h69.64c2.209,0,4-1.791,4-4 C264.32,242.134,262.529,240.344,260.32,240.344z"></path></g></g><g><g><path d="M260.32,280.344h-69.64c-2.209,0-4,1.791-4,4c0,2.209,1.791,4,4,4h69.64c2.209,0,4-1.791,4-4 C264.32,282.134,262.529,280.344,260.32,280.344z"></path></g></g><g><g><path d="M260.32,320.344h-69.64c-2.209,0-4,1.791-4,4c0,2.209,1.791,4,4,4h69.64c2.209,0,4-1.791,4-4 C264.32,322.134,262.529,320.344,260.32,320.344z"></path></g></g><g><g><path d="M260.32,360.344h-69.64c-2.209,0-4,1.791-4,4c0,2.209,1.791,4,4,4h69.64c2.209,0,4-1.791,4-4 C264.32,362.134,262.529,360.344,260.32,360.344z"></path></g></g><g><g><path d="M260.32,400.344h-69.64c-2.209,0-4,1.791-4,4c0,2.209,1.791,4,4,4h69.64c2.209,0,4-1.791,4-4 C264.32,402.134,262.529,400.344,260.32,400.344z"></path></g></g><g><g><path d="M428.2,93.864l-11.6-5.32c-2-0.906-4.356-0.032-5.28,1.96c-0.906,2-0.032,4.356,1.96,5.28l11.56,5.36 c0.53,0.233,1.101,0.356,1.68,0.36c2.209,0.012,4.01-1.769,4.022-3.978C430.55,95.95,429.633,94.517,428.2,93.864z"></path></g></g><g><g><path d="M398.68,80.304l-53-24.4c-2.01-0.928-4.392-0.05-5.32,1.96c-0.928,2.01-0.05,4.392,1.96,5.32l53,24.36 c0.523,0.252,1.099,0.376,1.68,0.36c2.209-0.035,3.971-1.853,3.937-4.062C400.913,82.331,400.04,80.962,398.68,80.304z"></path></g></g></svg>